<svg xmlns="http://www.w3.org/2000/svg" width="500" height="500" viewBox="0 0 500 500" version="1.1"><path d="M 298 19.318 C 298 20.044, 298.726 23.081, 299.612 26.068 C 305.174 44.803, 316.425 56.158, 348.500 75.409 C 352.900 78.049, 358.525 82.025, 361 84.244 L 365.500 88.278 360.500 84.761 C 336.304 67.738, 307.087 55.519, 278.500 50.467 C 266.165 48.287, 237.218 47.458, 223 48.878 C 186.582 52.515, 150.313 67.068, 121.039 89.792 C 110.283 98.141, 92.938 115.572, 84.970 126.040 C 44.900 178.677, 32.897 245.120, 52.076 308.117 C 57.070 324.520, 67.236 347, 69.660 347 C 71.697 347, 71.423 346.126, 65.541 333.873 C 54.628 311.139, 48.739 288.947, 46.778 263.164 C 40.183 176.466, 91.331 95.964, 173.394 63.882 C 193.972 55.837, 213.653 52.036, 238.500 51.309 C 272.596 50.310, 302.788 56.829, 331.989 71.495 C 342.813 76.931, 354.878 84.265, 361.727 89.571 C 366.107 92.966, 366.253 93.210, 363.500 92.538 C 355.597 90.610, 346.502 89.901, 323 89.382 C 295.952 88.785, 292.412 88.220, 285.037 83.325 C 282.599 81.707, 281.267 81.341, 280.537 82.091 C 279.051 83.618, 289.058 92.698, 296.719 96.775 C 308.141 102.853, 315.444 104.091, 345 104.961 C 383.006 106.079, 384.708 106.753, 399.376 126.500 C 409.957 140.745, 409.932 140.586, 400.442 133.428 C 384.798 121.629, 348 106.007, 348 111.164 C 348 112.686, 359.560 124.266, 367.576 130.774 C 374.443 136.349, 385.136 141.960, 399.270 147.405 C 417.764 154.529, 418.993 155.458, 423.890 165.997 C 427.855 174.531, 435.095 195.082, 436.398 201.500 L 437.006 204.500 435.362 201.500 C 432.587 196.439, 428.040 190.984, 416.604 179 C 405.264 167.116, 398.192 158.248, 394.874 151.750 C 393.821 149.688, 392.546 148, 392.041 148 C 390.424 148, 389.744 156.758, 390.866 163.131 C 392.180 170.592, 396.428 179.957, 401.787 187.211 C 403.967 190.163, 412.365 198.844, 420.450 206.503 C 428.534 214.163, 436.530 222.470, 438.220 224.965 C 441.212 229.380, 441.305 229.872, 441.780 243.622 C 443.412 290.935, 427.606 337.045, 396.852 374.681 C 383.998 390.412, 370.432 402.423, 351 415.276 C 311.980 441.085, 261.506 451.920, 214.500 444.578 C 201.749 442.586, 197.063 441.481, 183.757 437.323 C 177.298 435.304, 171.741 433.926, 171.407 434.260 C 170.094 435.572, 172.347 436.951, 179.925 439.475 C 237.085 458.511, 299.333 451.135, 350.720 419.238 C 376.483 403.246, 400.629 378.604, 416.850 351.748 C 434.648 322.282, 445 284.974, 445 250.293 C 445 238.582, 445.168 237.469, 447.364 234.589 C 456.261 222.925, 460.924 206.151, 463.474 176.633 C 464.371 166.256, 465.499 155.681, 465.981 153.133 C 466.860 148.484, 465.909 145.591, 464.144 147.550 C 459.589 152.608, 452.255 163.660, 449.039 170.311 C 444.770 179.139, 442.513 187.429, 441.362 198.500 L 440.635 205.500 439.467 201 C 438.819 198.505, 438.678 196.077, 439.149 195.550 C 440.553 193.983, 440.080 161.323, 438.493 150.154 C 436.323 134.892, 432.696 119.825, 428.406 108.250 C 422.690 92.830, 421.996 94.025, 422.020 119.250 C 422.031 130.938, 422.488 143.605, 423.037 147.400 C 423.585 151.194, 423.889 154.445, 423.711 154.623 C 423.533 154.801, 421.749 152.752, 419.747 150.071 C 416.400 145.588, 416.187 144.906, 417.099 141.604 C 418.250 137.436, 416.893 128.338, 414.043 121.112 C 413.042 118.575, 408.982 109.525, 405.020 101 C 396.885 83.498, 394.882 76.738, 392.586 59.043 C 391.702 52.224, 390.750 46.417, 390.472 46.139 C 387.800 43.467, 384.658 66.675, 385.210 85 C 385.564 96.759, 385.958 99.330, 388.266 104.933 L 390.915 111.366 383.697 104.196 C 377.604 98.143, 376.290 96.229, 375.262 91.903 C 371.191 74.763, 361.640 65.445, 324.167 42.054 C 310.645 33.614, 305.020 28.292, 302.055 21.134 C 300.768 18.025, 298 16.786, 298 19.318 M 305 32.638 C 305 34.158, 312.639 44.914, 316.850 49.322 C 321.617 54.315, 331.300 61.377, 342.500 68.029 C 353.684 74.673, 361.242 80.069, 366.750 85.346 C 369.087 87.585, 371 88.855, 371 88.168 C 371 86.243, 367.062 78.917, 363.797 74.767 C 359.792 69.678, 344.837 58.602, 326.641 47.248 C 318.313 42.052, 310.038 36.407, 308.250 34.704 C 306.462 33.001, 305 32.071, 305 32.638 M 388.674 66.508 C 385.953 95.331, 389.229 106.772, 407.191 131.187 L 414 140.443 414 135.903 C 414 129.878, 411.956 123.296, 406.381 111.365 C 394.563 86.075, 393.462 83.063, 391.086 69.508 L 389.334 59.515 388.674 66.508 M 293.999 91.733 C 294.004 92.674, 305.597 97.505, 311.846 99.170 C 318.180 100.858, 323.468 101.283, 342.500 101.635 C 363.910 102.031, 372.559 102.763, 377.500 104.597 L 379.500 105.339 377.500 103.063 C 372.293 97.137, 362.820 94.454, 342.103 93.035 C 328.060 92.074, 293.995 91.152, 293.999 91.733 M 425.073 124.651 C 424.985 144.195, 427.096 157.996, 432.851 175.500 L 436.797 187.500 436.898 174.128 C 437.044 155.024, 433.098 130.888, 427.042 113.839 L 425.146 108.500 425.073 124.651 M 362.693 121.964 C 367.199 126.357, 373.347 131.526, 376.356 133.451 C 380.598 136.165, 405.168 147.101, 415 150.653 C 415.825 150.951, 413.800 148.682, 410.500 145.612 C 398.017 133.998, 378.527 122.334, 362 116.585 L 354.500 113.976 362.693 121.964 M 112 135 C 112 136.696, 112.667 137, 116.389 137 C 121.915 137, 124.810 139.253, 126.025 144.500 C 126.535 146.700, 126.961 164.250, 126.971 183.500 L 126.989 218.500 118.745 227.057 C 100.250 246.253, 91.993 268.321, 93.321 295 C 95.244 333.618, 121.604 365.777, 159.907 376.235 C 171.341 379.357, 193.505 379.326, 204.482 376.172 C 220.544 371.557, 231.177 365.336, 249.897 349.597 C 265.440 336.529, 284.962 312.908, 301.008 287.755 L 308.500 276.010 320.628 276.005 C 329.147 276.002, 333.046 276.372, 333.732 277.250 C 334.270 277.938, 337.700 285.991, 341.355 295.147 C 349.052 314.429, 349.777 319.457, 345.365 322.927 C 343.520 324.379, 341.273 325, 337.865 325 C 334.207 325, 333 325.372, 333 326.500 C 333 327.800, 337 328, 363 328 C 387.908 328, 393 327.765, 393 326.614 C 393 325.741, 391.363 324.982, 388.583 324.565 C 381.661 323.527, 376.960 319.416, 372.174 310.217 C 369.878 305.805, 368 301.701, 368 301.097 C 368 300.408, 370.537 300, 374.822 300 C 402.049 300, 422.530 272.653, 415.505 245.680 C 413.434 237.731, 410.919 233.167, 405.100 226.799 C 396.111 216.965, 384.620 212.487, 370.146 213.179 C 362.657 213.537, 360.210 214.114, 354.708 216.823 C 351.112 218.593, 345.864 222.115, 343.046 224.649 C 340.228 227.182, 337.754 229.085, 337.549 228.878 C 337.344 228.670, 336.303 226.250, 335.235 223.500 C 332.422 216.257, 314.972 174.821, 313.853 172.728 C 312.991 171.114, 311.248 170.980, 294.286 171.228 C 281.552 171.414, 275.546 171.857, 275.289 172.630 C 275.064 173.307, 276.833 174.043, 279.707 174.466 C 289.750 175.947, 292.600 178.745, 298.495 192.914 L 301.163 199.328 294.638 214.914 C 291.049 223.486, 280.219 249.375, 270.573 272.445 C 254.966 309.769, 252.563 314.872, 248.766 318.756 C 245.998 321.589, 243.008 323.525, 240.250 324.268 C 237.912 324.899, 236 325.985, 236 326.683 C 236 327.643, 239.939 328.017, 252.250 328.225 L 268.500 328.500 260.873 336.097 C 245.323 351.583, 229.332 363.691, 217.296 369.092 C 205.358 374.448, 195.915 376.405, 182.500 376.303 C 164.210 376.164, 152.298 373.019, 137.731 364.482 C 119.010 353.510, 105.093 335.431, 98.331 313.297 C 95.949 305.499, 95.642 302.854, 95.624 290 C 95.609 278.160, 96.006 274.032, 97.789 267.500 C 100.258 258.453, 106.611 245.165, 111.803 238.187 C 115.993 232.555, 125.097 223, 126.273 223 C 126.736 223, 126.976 235.793, 126.807 251.429 C 126.515 278.434, 126.395 279.999, 124.412 282.679 C 122.842 284.800, 121.042 285.731, 117.162 286.432 C 114.030 286.998, 112 287.883, 112 288.682 C 112 289.739, 117.242 290, 138.500 290 C 160.282 290, 165 289.756, 165 288.629 C 165 287.745, 163.282 287.030, 160.162 286.616 C 156.816 286.172, 154.581 285.183, 152.912 283.408 L 150.500 280.842 150.230 251.171 L 149.961 221.500 154.058 216.750 C 156.312 214.137, 158.506 212, 158.935 212 C 159.363 212, 169.566 226.287, 181.607 243.750 C 213.266 289.664, 212.813 289.291, 237.750 289.825 C 251.550 290.120, 254 289.950, 254 288.700 C 254 287.708, 252.449 286.998, 249.250 286.526 C 243.714 285.708, 239.272 283.215, 235.320 278.706 C 233.769 276.937, 223.804 262.845, 213.175 247.391 L 193.850 219.292 190.213 221.146 C 186.006 223.291, 182.325 223.477, 176.807 221.824 C 172.799 220.623, 164.765 214.298, 162.958 210.921 C 160.783 206.858, 166.513 203.020, 174.773 203.006 C 177.996 203, 178.022 203.037, 176.477 205.394 C 174.598 208.262, 175.388 212.602, 178.049 214.026 C 183.309 216.841, 189 213.879, 189 208.326 C 189 203.368, 186.008 201.575, 176.772 201 L 168.744 200.500 183.534 184 C 191.668 174.925, 203.602 161.612, 210.054 154.415 C 223.063 139.904, 225.986 137.951, 236 137.071 C 240.857 136.644, 242.500 136.121, 242.500 135 C 242.500 133.715, 239.556 133.500, 222 133.500 C 204.444 133.500, 201.500 133.715, 201.500 135 C 201.500 136.118, 203.078 136.627, 207.701 137 C 214.662 137.561, 216.536 138.783, 215.641 142.177 C 215.304 143.455, 203.525 157.325, 189.466 173 C 164.293 201.065, 163.809 201.534, 157.702 203.738 C 154.291 204.969, 151.162 205.982, 150.750 205.988 C 150.338 205.995, 150 192.486, 150 175.968 C 150 144.061, 150.465 140.427, 154.850 138.080 C 155.960 137.486, 158.698 137, 160.934 137 C 164.333 137, 165 136.672, 165 135 C 165 133.050, 164.333 133, 138.500 133 C 112.667 133, 112 133.050, 112 135 M 458.212 160.481 C 452.905 168.472, 448.591 177.630, 446.428 185.500 C 444.557 192.304, 443.346 217.612, 444.463 226.551 L 445.171 232.213 447.512 228.768 C 454.214 218.905, 458.219 202.415, 460.502 175.285 C 461.346 165.267, 462.301 156.380, 462.625 155.535 C 463.735 152.643, 462.497 154.031, 458.212 160.481 M 393.551 159.020 C 396.016 176.049, 401.681 184.738, 424.334 206.231 L 438.805 219.963 437.061 214.231 C 433.323 201.951, 429.831 196.920, 412.780 179.254 C 406.280 172.518, 399.148 164.202, 396.932 160.773 L 392.903 154.539 393.551 159.020 M 301.043 207.387 C 300.544 208.699, 297.121 216.912, 293.437 225.637 C 278.287 261.511, 274.018 272.418, 274.814 273.214 C 275.275 273.675, 282.818 273.928, 291.576 273.776 L 307.500 273.500 314.739 262.500 C 318.720 256.450, 321.983 250.848, 321.989 250.051 C 322.005 247.895, 303.693 205, 302.756 205 C 302.313 205, 301.542 206.074, 301.043 207.387 M 154 207.306 C 151.085 208.301, 150.448 209.043, 150.187 211.750 C 149.774 216.027, 151 215.850, 155.384 210.997 C 160.351 205.499, 160.232 205.181, 154 207.306 M 361.500 216.346 C 354.398 218.698, 348.832 222.073, 343.866 227.039 C 339.377 231.528, 339.090 232.105, 340.067 234.677 C 341.449 238.312, 354.831 270.193, 361.401 285.500 L 366.550 297.500 375.025 297.474 C 382.419 297.450, 384.358 297.044, 390.223 294.289 C 403.270 288.159, 411.822 276.927, 414.255 262.723 C 417.269 245.126, 407.118 226.633, 390.061 218.646 C 384.514 216.049, 382.109 215.531, 374.500 215.297 C 368.970 215.128, 363.958 215.532, 361.500 216.346 M 317.250 262.583 C 313.813 267.754, 311 272.439, 311 272.993 C 311 274.219, 330.645 274.384, 331.399 273.164 C 331.779 272.549, 324.692 254.406, 323.656 253.340 C 323.570 253.252, 320.688 257.411, 317.250 262.583 M 264.615 294.446 C 256.623 313.807, 255.638 318.457, 258.905 321.414 C 261.195 323.486, 270.132 326.331, 270.988 325.260 C 271.321 324.842, 273.619 322.025, 276.094 319 C 284.020 309.312, 305 278.587, 305 276.667 C 305 276.300, 297.627 276, 288.615 276 L 272.231 276 264.615 294.446 M 76.427 356.765 C 73.086 359.053, 75.300 365.399, 79.232 364.807 C 84.169 364.064, 84.675 355.982, 79.782 356.015 C 78.527 356.024, 77.017 356.361, 76.427 356.765 M 96.964 385.067 C 96.104 386.675, 96.212 387.675, 97.452 389.567 C 100.058 393.545, 105 392.191, 105 387.500 C 105 383.013, 99.031 381.205, 96.964 385.067 M 123.667 406.667 C 122.210 408.123, 123.045 412.954, 124.928 413.961 C 128.794 416.030, 133.058 411.845, 131 408 C 129.956 406.050, 125.156 405.177, 123.667 406.667 M 154 425 C 151.650 427.350, 151.563 428.020, 153.299 430.395 C 154.164 431.577, 155.586 432.059, 157.549 431.836 C 159.979 431.559, 160.559 430.979, 160.836 428.549 C 161.059 426.586, 160.577 425.164, 159.395 424.299 C 157.020 422.563, 156.350 422.650, 154 425" stroke="none" fill="#0e0d0d" fill-rule="evenodd"/><path d="M 221.500 1.165 C 194.528 4.209, 165.665 12.773, 139.500 25.495 C 63.199 62.593, 10.292 138.151, 1.055 223.211 C -0.301 235.694, -0.301 264.306, 1.055 276.789 C 12.008 377.653, 83.045 462.206, 180.609 490.506 C 192.343 493.910, 211.154 497.636, 223.211 498.945 C 235.694 500.301, 264.306 500.301, 276.789 498.945 C 358.862 490.033, 432.047 440.595, 470.949 367.786 C 484.552 342.328, 495.046 309.328, 498.071 282.500 C 498.692 277, 499.604 271.719, 500.099 270.764 C 501.248 268.550, 501.291 227.702, 500.144 228.411 C 499.673 228.702, 499 225.531, 498.648 221.365 C 496.621 197.390, 487.325 165.866, 474.505 139.500 C 437.407 63.199, 361.849 10.292, 276.789 1.055 C 265.347 -0.188, 232.911 -0.123, 221.500 1.165 M 298 19.318 C 298 20.044, 298.726 23.081, 299.612 26.068 C 305.174 44.803, 316.425 56.158, 348.500 75.409 C 352.900 78.049, 358.525 82.025, 361 84.244 L 365.500 88.278 360.500 84.761 C 336.304 67.738, 307.087 55.519, 278.500 50.467 C 266.165 48.287, 237.218 47.458, 223 48.878 C 186.582 52.515, 150.313 67.068, 121.039 89.792 C 110.283 98.141, 92.938 115.572, 84.970 126.040 C 44.900 178.677, 32.897 245.120, 52.076 308.117 C 57.070 324.520, 67.236 347, 69.660 347 C 71.697 347, 71.423 346.126, 65.541 333.873 C 54.628 311.139, 48.739 288.947, 46.778 263.164 C 40.183 176.466, 91.331 95.964, 173.394 63.882 C 193.972 55.837, 213.653 52.036, 238.500 51.309 C 272.596 50.310, 302.788 56.829, 331.989 71.495 C 342.813 76.931, 354.878 84.265, 361.727 89.571 C 366.107 92.966, 366.253 93.210, 363.500 92.538 C 355.597 90.610, 346.502 89.901, 323 89.382 C 295.952 88.785, 292.412 88.220, 285.037 83.325 C 282.599 81.707, 281.267 81.341, 280.537 82.091 C 279.051 83.618, 289.058 92.698, 296.719 96.775 C 308.141 102.853, 315.444 104.091, 345 104.961 C 383.006 106.079, 384.708 106.753, 399.376 126.500 C 409.957 140.745, 409.932 140.586, 400.442 133.428 C 384.798 121.629, 348 106.007, 348 111.164 C 348 112.686, 359.560 124.266, 367.576 130.774 C 374.443 136.349, 385.136 141.960, 399.270 147.405 C 417.764 154.529, 418.993 155.458, 423.890 165.997 C 427.855 174.531, 435.095 195.082, 436.398 201.500 L 437.006 204.500 435.362 201.500 C 432.587 196.439, 428.040 190.984, 416.604 179 C 405.264 167.116, 398.192 158.248, 394.874 151.750 C 393.821 149.688, 392.546 148, 392.041 148 C 390.424 148, 389.744 156.758, 390.866 163.131 C 392.180 170.592, 396.428 179.957, 401.787 187.211 C 403.967 190.163, 412.365 198.844, 420.450 206.503 C 428.534 214.163, 436.530 222.470, 438.220 224.965 C 441.212 229.380, 441.305 229.872, 441.780 243.622 C 443.412 290.935, 427.606 337.045, 396.852 374.681 C 383.998 390.412, 370.432 402.423, 351 415.276 C 311.980 441.085, 261.506 451.920, 214.500 444.578 C 201.749 442.586, 197.063 441.481, 183.757 437.323 C 177.298 435.304, 171.741 433.926, 171.407 434.260 C 170.094 435.572, 172.347 436.951, 179.925 439.475 C 237.085 458.511, 299.333 451.135, 350.720 419.238 C 376.483 403.246, 400.629 378.604, 416.850 351.748 C 434.648 322.282, 445 284.974, 445 250.293 C 445 238.582, 445.168 237.469, 447.364 234.589 C 456.261 222.925, 460.924 206.151, 463.474 176.633 C 464.371 166.256, 465.499 155.681, 465.981 153.133 C 466.860 148.484, 465.909 145.591, 464.144 147.550 C 459.589 152.608, 452.255 163.660, 449.039 170.311 C 444.770 179.139, 442.513 187.429, 441.362 198.500 L 440.635 205.500 439.467 201 C 438.819 198.505, 438.678 196.077, 439.149 195.550 C 440.553 193.983, 440.080 161.323, 438.493 150.154 C 436.323 134.892, 432.696 119.825, 428.406 108.250 C 422.690 92.830, 421.996 94.025, 422.020 119.250 C 422.031 130.938, 422.488 143.605, 423.037 147.400 C 423.585 151.194, 423.889 154.445, 423.711 154.623 C 423.533 154.801, 421.749 152.752, 419.747 150.071 C 416.400 145.588, 416.187 144.906, 417.099 141.604 C 418.250 137.436, 416.893 128.338, 414.043 121.112 C 413.042 118.575, 408.982 109.525, 405.020 101 C 396.885 83.498, 394.882 76.738, 392.586 59.043 C 391.702 52.224, 390.750 46.417, 390.472 46.139 C 387.800 43.467, 384.658 66.675, 385.210 85 C 385.564 96.759, 385.958 99.330, 388.266 104.933 L 390.915 111.366 383.697 104.196 C 377.604 98.143, 376.290 96.229, 375.262 91.903 C 371.191 74.763, 361.640 65.445, 324.167 42.054 C 310.645 33.614, 305.020 28.292, 302.055 21.134 C 300.768 18.025, 298 16.786, 298 19.318 M 305 32.638 C 305 34.158, 312.639 44.914, 316.850 49.322 C 321.617 54.315, 331.300 61.377, 342.500 68.029 C 353.684 74.673, 361.242 80.069, 366.750 85.346 C 369.087 87.585, 371 88.855, 371 88.168 C 371 86.243, 367.062 78.917, 363.797 74.767 C 359.792 69.678, 344.837 58.602, 326.641 47.248 C 318.313 42.052, 310.038 36.407, 308.250 34.704 C 306.462 33.001, 305 32.071, 305 32.638 M 388.674 66.508 C 385.953 95.331, 389.229 106.772, 407.191 131.187 L 414 140.443 414 135.903 C 414 129.878, 411.956 123.296, 406.381 111.365 C 394.563 86.075, 393.462 83.063, 391.086 69.508 L 389.334 59.515 388.674 66.508 M 293.999 91.733 C 294.004 92.674, 305.597 97.505, 311.846 99.170 C 318.180 100.858, 323.468 101.283, 342.500 101.635 C 363.910 102.031, 372.559 102.763, 377.500 104.597 L 379.500 105.339 377.500 103.063 C 372.293 97.137, 362.820 94.454, 342.103 93.035 C 328.060 92.074, 293.995 91.152, 293.999 91.733 M 425.073 124.651 C 424.985 144.195, 427.096 157.996, 432.851 175.500 L 436.797 187.500 436.898 174.128 C 437.044 155.024, 433.098 130.888, 427.042 113.839 L 425.146 108.500 425.073 124.651 M 362.693 121.964 C 367.199 126.357, 373.347 131.526, 376.356 133.451 C 380.598 136.165, 405.168 147.101, 415 150.653 C 415.825 150.951, 413.800 148.682, 410.500 145.612 C 398.017 133.998, 378.527 122.334, 362 116.585 L 354.500 113.976 362.693 121.964 M 112 135 C 112 136.696, 112.667 137, 116.389 137 C 121.915 137, 124.810 139.253, 126.025 144.500 C 126.535 146.700, 126.961 164.250, 126.971 183.500 L 126.989 218.500 118.745 227.057 C 100.250 246.253, 91.993 268.321, 93.321 295 C 95.244 333.618, 121.604 365.777, 159.907 376.235 C 171.341 379.357, 193.505 379.326, 204.482 376.172 C 220.544 371.557, 231.177 365.336, 249.897 349.597 C 265.440 336.529, 284.962 312.908, 301.008 287.755 L 308.500 276.010 320.628 276.005 C 329.147 276.002, 333.046 276.372, 333.732 277.250 C 334.270 277.938, 337.700 285.991, 341.355 295.147 C 349.052 314.429, 349.777 319.457, 345.365 322.927 C 343.520 324.379, 341.273 325, 337.865 325 C 334.207 325, 333 325.372, 333 326.500 C 333 327.800, 337 328, 363 328 C 387.908 328, 393 327.765, 393 326.614 C 393 325.741, 391.363 324.982, 388.583 324.565 C 381.661 323.527, 376.960 319.416, 372.174 310.217 C 369.878 305.805, 368 301.701, 368 301.097 C 368 300.408, 370.537 300, 374.822 300 C 402.049 300, 422.530 272.653, 415.505 245.680 C 413.434 237.731, 410.919 233.167, 405.100 226.799 C 396.111 216.965, 384.620 212.487, 370.146 213.179 C 362.657 213.537, 360.210 214.114, 354.708 216.823 C 351.112 218.593, 345.864 222.115, 343.046 224.649 C 340.228 227.182, 337.754 229.085, 337.549 228.878 C 337.344 228.670, 336.303 226.250, 335.235 223.500 C 332.422 216.257, 314.972 174.821, 313.853 172.728 C 312.991 171.114, 311.248 170.980, 294.286 171.228 C 281.552 171.414, 275.546 171.857, 275.289 172.630 C 275.064 173.307, 276.833 174.043, 279.707 174.466 C 289.750 175.947, 292.600 178.745, 298.495 192.914 L 301.163 199.328 294.638 214.914 C 291.049 223.486, 280.219 249.375, 270.573 272.445 C 254.966 309.769, 252.563 314.872, 248.766 318.756 C 245.998 321.589, 243.008 323.525, 240.250 324.268 C 237.912 324.899, 236 325.985, 236 326.683 C 236 327.643, 239.939 328.017, 252.250 328.225 L 268.500 328.500 260.873 336.097 C 245.323 351.583, 229.332 363.691, 217.296 369.092 C 205.358 374.448, 195.915 376.405, 182.500 376.303 C 164.210 376.164, 152.298 373.019, 137.731 364.482 C 119.010 353.510, 105.093 335.431, 98.331 313.297 C 95.949 305.499, 95.642 302.854, 95.624 290 C 95.609 278.160, 96.006 274.032, 97.789 267.500 C 100.258 258.453, 106.611 245.165, 111.803 238.187 C 115.993 232.555, 125.097 223, 126.273 223 C 126.736 223, 126.976 235.793, 126.807 251.429 C 126.515 278.434, 126.395 279.999, 124.412 282.679 C 122.842 284.800, 121.042 285.731, 117.162 286.432 C 114.030 286.998, 112 287.883, 112 288.682 C 112 289.739, 117.242 290, 138.500 290 C 160.282 290, 165 289.756, 165 288.629 C 165 287.745, 163.282 287.030, 160.162 286.616 C 156.816 286.172, 154.581 285.183, 152.912 283.408 L 150.500 280.842 150.230 251.171 L 149.961 221.500 154.058 216.750 C 156.312 214.137, 158.506 212, 158.935 212 C 159.363 212, 169.566 226.287, 181.607 243.750 C 213.266 289.664, 212.813 289.291, 237.750 289.825 C 251.550 290.120, 254 289.950, 254 288.700 C 254 287.708, 252.449 286.998, 249.250 286.526 C 243.714 285.708, 239.272 283.215, 235.320 278.706 C 233.769 276.937, 223.804 262.845, 213.175 247.391 L 193.850 219.292 190.213 221.146 C 186.006 223.291, 182.325 223.477, 176.807 221.824 C 172.799 220.623, 164.765 214.298, 162.958 210.921 C 160.783 206.858, 166.513 203.020, 174.773 203.006 C 177.996 203, 178.022 203.037, 176.477 205.394 C 174.598 208.262, 175.388 212.602, 178.049 214.026 C 183.309 216.841, 189 213.879, 189 208.326 C 189 203.368, 186.008 201.575, 176.772 201 L 168.744 200.500 183.534 184 C 191.668 174.925, 203.602 161.612, 210.054 154.415 C 223.063 139.904, 225.986 137.951, 236 137.071 C 240.857 136.644, 242.500 136.121, 242.500 135 C 242.500 133.715, 239.556 133.500, 222 133.500 C 204.444 133.500, 201.500 133.715, 201.500 135 C 201.500 136.118, 203.078 136.627, 207.701 137 C 214.662 137.561, 216.536 138.783, 215.641 142.177 C 215.304 143.455, 203.525 157.325, 189.466 173 C 164.293 201.065, 163.809 201.534, 157.702 203.738 C 154.291 204.969, 151.162 205.982, 150.750 205.988 C 150.338 205.995, 150 192.486, 150 175.968 C 150 144.061, 150.465 140.427, 154.850 138.080 C 155.960 137.486, 158.698 137, 160.934 137 C 164.333 137, 165 136.672, 165 135 C 165 133.050, 164.333 133, 138.500 133 C 112.667 133, 112 133.050, 112 135 M 458.212 160.481 C 452.905 168.472, 448.591 177.630, 446.428 185.500 C 444.557 192.304, 443.346 217.612, 444.463 226.551 L 445.171 232.213 447.512 228.768 C 454.214 218.905, 458.219 202.415, 460.502 175.285 C 461.346 165.267, 462.301 156.380, 462.625 155.535 C 463.735 152.643, 462.497 154.031, 458.212 160.481 M 393.551 159.020 C 396.016 176.049, 401.681 184.738, 424.334 206.231 L 438.805 219.963 437.061 214.231 C 433.323 201.951, 429.831 196.920, 412.780 179.254 C 406.280 172.518, 399.148 164.202, 396.932 160.773 L 392.903 154.539 393.551 159.020 M 301.043 207.387 C 300.544 208.699, 297.121 216.912, 293.437 225.637 C 278.287 261.511, 274.018 272.418, 274.814 273.214 C 275.275 273.675, 282.818 273.928, 291.576 273.776 L 307.500 273.500 314.739 262.500 C 318.720 256.450, 321.983 250.848, 321.989 250.051 C 322.005 247.895, 303.693 205, 302.756 205 C 302.313 205, 301.542 206.074, 301.043 207.387 M 154 207.306 C 151.085 208.301, 150.448 209.043, 150.187 211.750 C 149.774 216.027, 151 215.850, 155.384 210.997 C 160.351 205.499, 160.232 205.181, 154 207.306 M 361.500 216.346 C 354.398 218.698, 348.832 222.073, 343.866 227.039 C 339.377 231.528, 339.090 232.105, 340.067 234.677 C 341.449 238.312, 354.831 270.193, 361.401 285.500 L 366.550 297.500 375.025 297.474 C 382.419 297.450, 384.358 297.044, 390.223 294.289 C 403.270 288.159, 411.822 276.927, 414.255 262.723 C 417.269 245.126, 407.118 226.633, 390.061 218.646 C 384.514 216.049, 382.109 215.531, 374.500 215.297 C 368.970 215.128, 363.958 215.532, 361.500 216.346 M 0.425 250 C 0.425 261.825, 0.569 266.663, 0.746 260.750 C 0.923 254.838, 0.923 245.162, 0.746 239.250 C 0.569 233.338, 0.425 238.175, 0.425 250 M 317.250 262.583 C 313.813 267.754, 311 272.439, 311 272.993 C 311 274.219, 330.645 274.384, 331.399 273.164 C 331.779 272.549, 324.692 254.406, 323.656 253.340 C 323.570 253.252, 320.688 257.411, 317.250 262.583 M 264.615 294.446 C 256.623 313.807, 255.638 318.457, 258.905 321.414 C 261.195 323.486, 270.132 326.331, 270.988 325.260 C 271.321 324.842, 273.619 322.025, 276.094 319 C 284.020 309.312, 305 278.587, 305 276.667 C 305 276.300, 297.627 276, 288.615 276 L 272.231 276 264.615 294.446 M 76.427 356.765 C 73.086 359.053, 75.300 365.399, 79.232 364.807 C 84.169 364.064, 84.675 355.982, 79.782 356.015 C 78.527 356.024, 77.017 356.361, 76.427 356.765 M 96.964 385.067 C 96.104 386.675, 96.212 387.675, 97.452 389.567 C 100.058 393.545, 105 392.191, 105 387.500 C 105 383.013, 99.031 381.205, 96.964 385.067 M 123.667 406.667 C 122.210 408.123, 123.045 412.954, 124.928 413.961 C 128.794 416.030, 133.058 411.845, 131 408 C 129.956 406.050, 125.156 405.177, 123.667 406.667 M 154 425 C 151.650 427.350, 151.563 428.020, 153.299 430.395 C 154.164 431.577, 155.586 432.059, 157.549 431.836 C 159.979 431.559, 160.559 430.979, 160.836 428.549 C 161.059 426.586, 160.577 425.164, 159.395 424.299 C 157.020 422.563, 156.350 422.650, 154 425" stroke="none" fill="#faeae2" fill-rule="evenodd"/></svg>