<svg xmlns="http://www.w3.org/2000/svg" width="500" height="500" viewBox="0 0 500 500" version="1.1"><path d="M 298 19.318 C 298 20.044, 298.726 23.081, 299.612 26.068 C 305.174 44.803, 316.425 56.158, 348.500 75.409 C 352.900 78.049, 358.525 82.025, 361 84.244 L 365.500 88.278 360.500 84.773 C 332.274 64.985, 299.185 52.326, 267.144 49.057 C 228.141 45.077, 191.591 51.169, 157.739 67.291 C 123.434 83.630, 93.677 110.202, 73.761 142.280 C 63.675 158.526, 56.736 173.916, 51.343 192 C 39.997 230.047, 40.429 270.553, 52.601 309.814 C 57.502 325.623, 67.310 347, 69.662 347 C 71.697 347, 71.422 346.124, 65.541 333.873 C 54.628 311.139, 48.739 288.947, 46.778 263.164 C 40.197 176.646, 91.383 95.940, 173.095 63.998 C 193.985 55.832, 213.532 52.040, 238.500 51.309 C 272.596 50.310, 302.788 56.829, 331.989 71.495 C 342.813 76.931, 354.878 84.265, 361.727 89.571 C 366.103 92.963, 366.251 93.209, 363.500 92.534 C 355.748 90.631, 347.624 89.993, 324 89.434 C 296.870 88.792, 291.948 88.025, 285.037 83.362 C 282.600 81.718, 281.267 81.342, 280.537 82.091 C 279.051 83.618, 289.058 92.698, 296.719 96.775 C 308.113 102.838, 315.453 104.088, 345 104.993 C 383.096 106.160, 384.756 106.816, 399.376 126.500 C 409.957 140.745, 409.932 140.586, 400.442 133.428 C 384.798 121.629, 348 106.007, 348 111.164 C 348 112.686, 359.560 124.266, 367.576 130.774 C 374.443 136.349, 385.136 141.960, 399.270 147.405 C 417.764 154.529, 418.993 155.458, 423.890 165.997 C 427.855 174.531, 435.095 195.082, 436.398 201.500 L 437.006 204.500 435.362 201.500 C 432.587 196.439, 428.040 190.984, 416.604 179 C 405.264 167.116, 398.192 158.248, 394.874 151.750 C 393.821 149.688, 392.546 148, 392.041 148 C 390.424 148, 389.744 156.758, 390.866 163.131 C 392.180 170.592, 396.428 179.957, 401.787 187.211 C 403.967 190.163, 412.365 198.844, 420.450 206.503 C 428.534 214.163, 436.530 222.470, 438.220 224.965 C 441.212 229.380, 441.305 229.872, 441.780 243.622 C 445.037 338.020, 379.428 421.619, 285.788 442.386 C 252.586 449.749, 218.097 448.036, 183.757 437.318 C 177.298 435.302, 171.741 433.926, 171.407 434.260 C 170.094 435.572, 172.347 436.951, 179.925 439.475 C 228.360 455.605, 282.420 452.758, 327.500 431.702 C 350.564 420.929, 367.848 408.881, 385.825 391.047 C 423.664 353.507, 445 302.758, 445 250.293 C 445 238.582, 445.168 237.469, 447.364 234.589 C 456.261 222.925, 460.924 206.151, 463.474 176.633 C 464.371 166.256, 465.499 155.681, 465.981 153.133 C 467.139 147.012, 465.742 145.580, 462.458 149.521 C 457.189 155.843, 449.918 167.645, 447.053 174.527 C 444.239 181.286, 441.121 195.404, 440.902 202.381 C 440.812 205.233, 440.697 205.115, 439.551 201 C 438.855 198.499, 438.677 196.078, 439.149 195.550 C 440.553 193.983, 440.080 161.323, 438.493 150.154 C 436.323 134.892, 432.696 119.825, 428.406 108.250 C 422.690 92.830, 421.996 94.025, 422.020 119.250 C 422.031 130.938, 422.488 143.605, 423.037 147.400 C 423.585 151.194, 423.889 154.445, 423.711 154.623 C 423.533 154.801, 421.749 152.752, 419.747 150.071 C 416.368 145.544, 416.180 144.931, 417.128 141.500 C 418.698 135.813, 416.053 125.202, 409.505 110.917 C 395.949 81.346, 394.857 77.702, 391.464 50.690 C 391.081 47.646, 390.426 46.022, 389.680 46.267 C 387.431 47.005, 385.824 60.298, 385.661 79.500 C 385.504 98.080, 385.560 98.642, 388.208 104.933 L 390.915 111.366 383.697 104.196 C 377.604 98.143, 376.290 96.229, 375.262 91.903 C 371.191 74.763, 361.640 65.445, 324.167 42.054 C 310.645 33.614, 305.020 28.292, 302.055 21.134 C 300.768 18.025, 298 16.786, 298 19.318 M 305 32.638 C 305 34.158, 312.639 44.914, 316.850 49.322 C 321.617 54.315, 331.300 61.377, 342.500 68.029 C 353.684 74.673, 361.242 80.069, 366.750 85.346 C 369.087 87.585, 371 88.855, 371 88.168 C 371 86.243, 367.062 78.917, 363.797 74.767 C 359.792 69.678, 344.837 58.602, 326.641 47.248 C 318.313 42.052, 310.038 36.407, 308.250 34.704 C 306.462 33.001, 305 32.071, 305 32.638 M 388.674 66.508 C 385.953 95.331, 389.229 106.772, 407.191 131.187 L 414 140.443 414 135.903 C 414 129.878, 411.956 123.296, 406.381 111.365 C 394.563 86.075, 393.462 83.063, 391.086 69.508 L 389.334 59.515 388.674 66.508 M 293.999 91.733 C 294.004 92.674, 305.597 97.505, 311.846 99.170 C 318.180 100.858, 323.468 101.283, 342.500 101.635 C 363.910 102.031, 372.559 102.763, 377.500 104.597 L 379.500 105.339 377.500 103.063 C 372.293 97.137, 362.820 94.454, 342.103 93.035 C 328.060 92.074, 293.995 91.152, 293.999 91.733 M 425.419 128.500 C 425.877 150.620, 427.146 158.411, 433.321 177 L 436.809 187.500 436.905 174.128 C 437.042 154.860, 432.964 130.107, 426.972 113.839 L 425.006 108.500 425.419 128.500 M 362.693 121.964 C 367.199 126.357, 373.347 131.526, 376.356 133.451 C 380.598 136.165, 405.168 147.101, 415 150.653 C 415.825 150.951, 413.800 148.682, 410.500 145.612 C 398.017 133.998, 378.527 122.334, 362 116.585 L 354.500 113.976 362.693 121.964 M 112 135 C 112 136.696, 112.667 137, 116.389 137 C 121.915 137, 124.810 139.253, 126.025 144.500 C 126.535 146.700, 126.961 164.250, 126.971 183.500 L 126.989 218.500 118.745 227.057 C 100.276 246.226, 92.031 268.234, 93.289 295 C 95.097 333.461, 121.596 365.775, 159.907 376.235 C 171.295 379.345, 193.508 379.325, 204.395 376.196 C 220.509 371.564, 229.580 366.384, 247.309 351.691 C 265.082 336.961, 283.946 314.501, 301.008 287.755 L 308.500 276.010 320.628 276.005 C 329.147 276.002, 333.046 276.372, 333.732 277.250 C 334.270 277.938, 337.700 285.991, 341.355 295.147 C 349.052 314.429, 349.777 319.457, 345.365 322.927 C 343.520 324.379, 341.273 325, 337.865 325 C 334.207 325, 333 325.372, 333 326.500 C 333 327.800, 337 328, 363 328 C 387.908 328, 393 327.765, 393 326.614 C 393 325.741, 391.363 324.982, 388.583 324.565 C 381.661 323.527, 376.960 319.416, 372.174 310.217 C 369.878 305.805, 368 301.740, 368 301.184 C 368 300.610, 370.866 300.152, 374.633 300.123 C 402.093 299.912, 422.537 272.679, 415.505 245.680 C 413.434 237.731, 410.919 233.167, 405.100 226.799 C 396.111 216.965, 384.620 212.487, 370.146 213.179 C 362.657 213.537, 360.210 214.114, 354.708 216.823 C 351.112 218.593, 345.864 222.115, 343.046 224.649 C 340.228 227.182, 337.754 229.085, 337.549 228.878 C 337.344 228.670, 336.303 226.250, 335.235 223.500 C 332.422 216.257, 314.972 174.821, 313.853 172.728 C 312.991 171.114, 311.248 170.980, 294.286 171.228 C 281.552 171.414, 275.546 171.857, 275.289 172.630 C 275.064 173.307, 276.833 174.043, 279.707 174.466 C 289.750 175.947, 292.600 178.745, 298.495 192.914 L 301.163 199.328 294.638 214.914 C 291.049 223.486, 280.219 249.375, 270.573 272.445 C 254.966 309.769, 252.563 314.872, 248.766 318.756 C 245.998 321.589, 243.008 323.525, 240.250 324.268 C 237.912 324.899, 236 325.996, 236 326.707 C 236 327.711, 239.595 328, 252.051 328 L 268.102 328 265.496 331.417 C 264.062 333.296, 258.155 339.034, 252.369 344.167 C 224.932 368.507, 207.570 376.493, 182.500 376.303 C 164.210 376.164, 152.298 373.019, 137.731 364.482 C 119.010 353.510, 105.093 335.431, 98.331 313.297 C 95.949 305.499, 95.642 302.854, 95.624 290 C 95.609 278.160, 96.006 274.032, 97.789 267.500 C 100.376 258.021, 106.902 244.611, 112.361 237.556 C 117.196 231.307, 125.133 223, 126.270 223 C 126.734 223, 126.976 235.793, 126.807 251.429 C 126.515 278.434, 126.395 279.999, 124.412 282.679 C 122.842 284.800, 121.042 285.731, 117.162 286.432 C 114.030 286.998, 112 287.883, 112 288.682 C 112 289.739, 117.242 290, 138.500 290 C 160.282 290, 165 289.756, 165 288.629 C 165 287.745, 163.282 287.030, 160.162 286.616 C 156.816 286.172, 154.581 285.183, 152.912 283.408 L 150.500 280.842 150.230 251.171 L 149.961 221.500 154.058 216.750 C 156.312 214.137, 158.506 212, 158.935 212 C 159.363 212, 169.566 226.287, 181.607 243.750 C 213.266 289.664, 212.813 289.291, 237.750 289.825 C 251.550 290.120, 254 289.950, 254 288.700 C 254 287.708, 252.449 286.998, 249.250 286.526 C 243.714 285.708, 239.272 283.215, 235.320 278.706 C 233.769 276.937, 223.804 262.845, 213.175 247.391 L 193.850 219.292 190.213 221.146 C 186.006 223.291, 182.325 223.477, 176.807 221.824 C 172.799 220.623, 164.765 214.298, 162.958 210.921 C 160.783 206.858, 166.513 203.020, 174.773 203.006 C 177.996 203, 178.022 203.037, 176.477 205.394 C 174.598 208.262, 175.388 212.602, 178.049 214.026 C 183.309 216.841, 189 213.879, 189 208.326 C 189 203.368, 186.008 201.575, 176.772 201 L 168.744 200.500 183.534 184 C 191.668 174.925, 203.602 161.612, 210.054 154.415 C 223.063 139.904, 225.986 137.951, 236 137.071 C 240.857 136.644, 242.500 136.121, 242.500 135 C 242.500 133.715, 239.556 133.500, 222 133.500 C 204.444 133.500, 201.500 133.715, 201.500 135 C 201.500 136.118, 203.078 136.627, 207.701 137 C 214.662 137.561, 216.536 138.783, 215.641 142.177 C 215.304 143.455, 203.525 157.325, 189.466 173 C 164.293 201.065, 163.809 201.534, 157.702 203.738 C 154.291 204.969, 151.162 205.982, 150.750 205.988 C 150.338 205.995, 150 192.486, 150 175.968 C 150 144.061, 150.465 140.427, 154.850 138.080 C 155.960 137.486, 158.698 137, 160.934 137 C 164.333 137, 165 136.672, 165 135 C 165 133.050, 164.333 133, 138.500 133 C 112.667 133, 112 133.050, 112 135 M 458.212 160.481 C 452.905 168.472, 448.591 177.630, 446.428 185.500 C 444.551 192.327, 443.348 217.622, 444.471 226.617 L 445.187 232.345 447.895 227.923 C 454.826 216.601, 458.131 202.784, 460.497 175.246 C 461.360 165.207, 462.324 156.319, 462.640 155.496 C 463.734 152.644, 462.479 154.057, 458.212 160.481 M 393.551 159.020 C 396.016 176.049, 401.681 184.738, 424.334 206.231 L 438.805 219.963 437.061 214.231 C 433.323 201.951, 429.831 196.920, 412.780 179.254 C 406.280 172.518, 399.148 164.202, 396.932 160.773 L 392.903 154.539 393.551 159.020 M 301.043 207.387 C 300.544 208.699, 297.121 216.912, 293.437 225.637 C 278.287 261.511, 274.018 272.418, 274.814 273.214 C 275.275 273.675, 282.806 273.928, 291.550 273.776 L 307.447 273.500 314.715 262.500 C 318.713 256.450, 321.987 250.848, 321.992 250.051 C 322.004 247.890, 303.691 205, 302.756 205 C 302.313 205, 301.542 206.074, 301.043 207.387 M 154 207.306 C 151.085 208.301, 150.448 209.043, 150.187 211.750 C 149.774 216.027, 151 215.850, 155.384 210.997 C 160.351 205.499, 160.232 205.181, 154 207.306 M 361.500 216.346 C 354.398 218.698, 348.832 222.073, 343.866 227.039 C 339.377 231.528, 339.090 232.105, 340.067 234.677 C 341.449 238.312, 354.831 270.193, 361.401 285.500 L 366.550 297.500 375.025 297.474 C 382.419 297.450, 384.358 297.044, 390.223 294.289 C 403.270 288.159, 411.822 276.927, 414.255 262.723 C 417.269 245.126, 407.118 226.633, 390.061 218.646 C 384.514 216.049, 382.109 215.531, 374.500 215.297 C 368.970 215.128, 363.958 215.532, 361.500 216.346 M 317.250 262.583 C 313.813 267.754, 311 272.439, 311 272.993 C 311 274.219, 330.645 274.384, 331.399 273.164 C 331.779 272.549, 324.692 254.406, 323.656 253.340 C 323.570 253.252, 320.688 257.411, 317.250 262.583 M 264.615 294.446 C 256.623 313.807, 255.638 318.457, 258.905 321.414 C 261.195 323.486, 270.132 326.331, 270.988 325.260 C 271.321 324.842, 273.619 322.025, 276.094 319 C 284.020 309.312, 305 278.587, 305 276.667 C 305 276.300, 297.627 276, 288.615 276 L 272.231 276 264.615 294.446 M 120.199 340 C 120.199 343.861, 120.412 344.755, 120.912 343 L 121.625 340.500 123.053 342.750 C 123.838 343.988, 124.893 345, 125.396 345 C 125.898 345, 125.565 344.177, 124.655 343.171 C 123.745 342.165, 123 340.738, 123 340 C 123 339.262, 123.745 337.835, 124.655 336.829 C 125.588 335.798, 125.821 335, 125.190 335 C 124.574 335, 123.520 336.012, 122.846 337.250 L 121.623 339.500 120.911 337 C 120.412 335.247, 120.199 336.144, 120.199 340 M 134 338.309 C 134 343.053, 136.035 345.459, 139.344 344.628 C 141.780 344.017, 141.988 343.571, 141.850 339.231 L 141.700 334.500 141.100 339 C 140.609 342.684, 140.092 343.558, 138.250 343.820 C 136.198 344.111, 136 343.736, 136 339.570 C 136 337.056, 135.550 335, 135 335 C 134.450 335, 134 336.489, 134 338.309 M 151.667 335.667 C 150.152 337.182, 151.186 339.169, 154 340.150 C 158.095 341.577, 158.070 344.384, 153.969 343.782 C 152.133 343.513, 151.298 343.698, 151.853 344.253 C 153.453 345.853, 157.478 344.653, 157.789 342.484 C 157.998 341.026, 157.236 340.150, 155.039 339.321 C 151.070 337.823, 151.005 335.627, 154.947 336.206 C 156.568 336.443, 157.667 336.270, 157.388 335.819 C 156.781 334.837, 152.608 334.725, 151.667 335.667 M 167 340 C 167 342.933, 167.253 345.081, 167.561 344.772 C 168.334 343.999, 168.382 336.049, 167.619 335.285 C 167.278 334.945, 167 337.067, 167 340 M 172.830 337.250 C 172.608 338.488, 172.728 340.850, 173.095 342.500 C 173.636 344.928, 173.786 344.499, 173.882 340.250 C 174.005 334.774, 173.521 333.393, 172.830 337.250 M 184.636 339.283 C 182.812 344.058, 182.517 346.434, 184.080 343.750 C 184.641 342.788, 185.955 342, 187 342 C 188.045 342, 189.394 342.788, 189.998 343.750 C 190.912 345.208, 190.983 345.083, 190.421 343 C 189.696 340.311, 187.166 335, 186.610 335 C 186.424 335, 185.536 336.928, 184.636 339.283 M 200.447 337.441 C 198.891 339.816, 198.888 340.180, 200.408 342.500 C 202.356 345.472, 205.985 345.779, 208.345 343.171 C 210.653 340.621, 210.424 339.982, 207.250 340.116 C 205.558 340.187, 205.173 340.408, 206.250 340.689 C 207.213 340.941, 208 341.537, 208 342.014 C 208 344.905, 201.530 344.136, 200.750 341.153 C 199.644 336.924, 204.678 334.186, 207.925 337.250 C 208.994 338.259, 209.163 338.211, 208.798 337 C 208.549 336.175, 206.946 335.361, 205.235 335.191 C 202.808 334.950, 201.754 335.445, 200.447 337.441 M 219.136 340.250 C 219.211 343.137, 219.467 344.488, 219.706 343.250 C 219.944 342.012, 220.373 341, 220.659 341 C 220.945 341, 222.069 342.012, 223.156 343.250 C 224.738 345.050, 224.941 345.113, 224.174 343.565 C 223.544 342.297, 223.576 341.051, 224.265 339.948 C 225.810 337.473, 224.444 335, 221.531 335 C 219.127 335, 219.007 335.263, 219.136 340.250 M 235.636 339.283 C 233.812 344.058, 233.517 346.434, 235.080 343.750 C 235.641 342.788, 236.955 342, 238 342 C 239.045 342, 240.394 342.788, 240.998 343.750 C 241.912 345.208, 241.983 345.083, 241.421 343 C 240.696 340.311, 238.166 335, 237.610 335 C 237.424 335, 236.536 336.928, 235.636 339.283 M 274.636 339.283 C 272.812 344.058, 272.517 346.434, 274.080 343.750 C 274.641 342.788, 275.955 342, 277 342 C 278.045 342, 279.394 342.788, 279.998 343.750 C 280.912 345.208, 280.983 345.083, 280.421 343 C 279.696 340.311, 277.166 335, 276.610 335 C 276.424 335, 275.536 336.928, 274.636 339.283 M 291.200 336.200 C 290.540 336.860, 290 338.670, 290 340.221 C 290 343.899, 293.762 345.885, 297.500 344.182 C 300.956 342.607, 300.793 339.961, 297.250 340.136 C 294.806 340.257, 294.757 340.322, 296.808 340.713 C 298.676 341.070, 298.891 341.426, 297.936 342.577 C 295.130 345.958, 290.294 342.948, 291.407 338.513 C 291.864 336.694, 292.707 336, 294.460 336 C 295.792 336, 297.160 336.450, 297.500 337 C 297.840 337.550, 298.597 338, 299.181 338 C 299.852 338, 299.785 337.446, 299 336.500 C 297.508 334.702, 292.876 334.524, 291.200 336.200 M 310.189 340 C 309.046 342.750, 308.536 345, 309.055 345 C 309.575 345, 310 344.325, 310 343.500 C 310 341.434, 314.616 341.556, 315.417 343.643 C 315.763 344.547, 316.273 345.061, 316.549 344.785 C 317.065 344.269, 313.390 335, 312.669 335 C 312.448 335, 311.332 337.250, 310.189 340 M 326.136 340.250 C 326.211 343.137, 326.473 344.444, 326.718 343.153 L 327.165 340.806 329.802 343.153 C 331.253 344.444, 331.865 344.748, 331.162 343.828 C 330.153 342.507, 330.140 341.749, 331.100 340.211 C 332.793 337.501, 331.560 335, 328.531 335 C 326.127 335, 326.007 335.263, 326.136 340.250 M 341.331 340.277 L 342.361 345.487 344.125 341.493 L 345.889 337.500 347.609 341.500 L 349.328 345.500 350.195 341.528 C 350.671 339.343, 350.875 336.868, 350.647 336.028 C 350.419 335.188, 350.180 335.663, 350.116 337.083 C 349.936 341.084, 348.775 341.356, 347.203 337.767 L 345.773 334.500 344.803 337.250 C 343.684 340.423, 342 340.909, 342 338.059 C 342 336.991, 341.618 335.882, 341.151 335.593 C 340.683 335.304, 340.765 337.412, 341.331 340.277 M 361 339.500 C 359.872 342.131, 359.175 344.509, 359.451 344.785 C 359.727 345.061, 360.237 344.547, 360.583 343.643 C 361.384 341.556, 366 341.434, 366 343.500 C 366 344.325, 366.434 345, 366.964 345 C 367.776 345, 364.720 336.386, 363.462 335.129 C 363.236 334.902, 362.128 336.869, 361 339.500 M 376.180 339.750 C 376.004 344.884, 376.061 344.997, 378.750 344.864 C 381.028 344.751, 381.123 344.654, 379.302 344.301 C 377.482 343.948, 377.041 343.070, 376.732 339.187 L 376.360 334.500 376.180 339.750 M 220 338.073 C 220 340.636, 223.310 340.345, 223.812 337.739 C 224.043 336.539, 223.504 336, 222.073 336 C 220.642 336, 220 336.642, 220 338.073 M 327 338.073 C 327 339.504, 327.539 340.043, 328.739 339.812 C 331.345 339.310, 331.636 336, 329.073 336 C 327.642 336, 327 336.642, 327 338.073 M 185.638 339.500 C 185.288 340.414, 185.637 341, 186.531 341 C 187.339 341, 188 340.325, 188 339.500 C 188 338.675, 187.598 338, 187.107 338 C 186.616 338, 185.955 338.675, 185.638 339.500 M 236.638 339.500 C 236.288 340.414, 236.637 341, 237.531 341 C 238.339 341, 239 340.325, 239 339.500 C 239 338.675, 238.598 338, 238.107 338 C 237.616 338, 236.955 338.675, 236.638 339.500 M 275.638 339.500 C 275.288 340.414, 275.637 341, 276.531 341 C 277.339 341, 278 340.325, 278 339.500 C 278 338.675, 277.598 338, 277.107 338 C 276.616 338, 275.955 338.675, 275.638 339.500 M 311.636 339.506 C 311.288 340.413, 311.639 341, 312.531 341 C 314.149 341, 314.517 339.437, 313.105 338.565 C 312.612 338.260, 311.952 338.684, 311.636 339.506 M 362.525 338.960 C 361.677 340.332, 362.428 341.362, 363.905 340.854 C 364.511 340.646, 364.588 339.940, 364.093 339.143 C 363.468 338.137, 363.063 338.090, 362.525 338.960 M 76.427 356.765 C 73.086 359.053, 75.300 365.399, 79.232 364.807 C 84.169 364.064, 84.675 355.982, 79.782 356.015 C 78.527 356.024, 77.017 356.361, 76.427 356.765 M 96.820 385.496 C 95.880 387.558, 95.998 388.340, 97.496 389.996 C 100.603 393.429, 105 391.966, 105 387.500 C 105 382.695, 98.789 381.174, 96.820 385.496 M 123.667 406.667 C 122.210 408.123, 123.045 412.954, 124.928 413.961 C 128.794 416.030, 133.058 411.845, 131 408 C 129.956 406.050, 125.156 405.177, 123.667 406.667 M 154 425 C 151.650 427.350, 151.563 428.020, 153.299 430.395 C 154.164 431.577, 155.586 432.059, 157.549 431.836 C 159.979 431.559, 160.559 430.979, 160.836 428.549 C 161.059 426.586, 160.577 425.164, 159.395 424.299 C 157.020 422.563, 156.350 422.650, 154 425" stroke="none" fill="#0f0f0e" fill-rule="evenodd"/><path d="M 221.500 1.165 C 194.528 4.209, 165.665 12.773, 139.500 25.495 C 63.199 62.593, 10.292 138.151, 1.055 223.211 C -0.301 235.694, -0.301 264.306, 1.055 276.789 C 12.008 377.653, 83.045 462.206, 180.609 490.506 C 192.343 493.910, 211.154 497.636, 223.211 498.945 C 235.694 500.301, 264.306 500.301, 276.789 498.945 C 358.862 490.033, 432.047 440.595, 470.949 367.786 C 484.552 342.328, 495.046 309.328, 498.071 282.500 C 498.692 277, 499.604 271.719, 500.099 270.764 C 501.248 268.550, 501.291 227.702, 500.144 228.411 C 499.673 228.702, 499 225.531, 498.648 221.365 C 496.621 197.390, 487.325 165.866, 474.505 139.500 C 437.407 63.199, 361.849 10.292, 276.789 1.055 C 265.347 -0.188, 232.911 -0.123, 221.500 1.165 M 298 19.318 C 298 20.044, 298.726 23.081, 299.612 26.068 C 305.174 44.803, 316.425 56.158, 348.500 75.409 C 352.900 78.049, 358.525 82.025, 361 84.244 L 365.500 88.278 360.500 84.773 C 332.274 64.985, 299.185 52.326, 267.144 49.057 C 228.141 45.077, 191.591 51.169, 157.739 67.291 C 123.434 83.630, 93.677 110.202, 73.761 142.280 C 63.675 158.526, 56.736 173.916, 51.343 192 C 39.997 230.047, 40.429 270.553, 52.601 309.814 C 57.502 325.623, 67.310 347, 69.662 347 C 71.697 347, 71.422 346.124, 65.541 333.873 C 54.628 311.139, 48.739 288.947, 46.778 263.164 C 40.197 176.646, 91.383 95.940, 173.095 63.998 C 193.985 55.832, 213.532 52.040, 238.500 51.309 C 272.596 50.310, 302.788 56.829, 331.989 71.495 C 342.813 76.931, 354.878 84.265, 361.727 89.571 C 366.103 92.963, 366.251 93.209, 363.500 92.534 C 355.748 90.631, 347.624 89.993, 324 89.434 C 296.870 88.792, 291.948 88.025, 285.037 83.362 C 282.600 81.718, 281.267 81.342, 280.537 82.091 C 279.051 83.618, 289.058 92.698, 296.719 96.775 C 308.113 102.838, 315.453 104.088, 345 104.993 C 383.096 106.160, 384.756 106.816, 399.376 126.500 C 409.957 140.745, 409.932 140.586, 400.442 133.428 C 384.798 121.629, 348 106.007, 348 111.164 C 348 112.686, 359.560 124.266, 367.576 130.774 C 374.443 136.349, 385.136 141.960, 399.270 147.405 C 417.764 154.529, 418.993 155.458, 423.890 165.997 C 427.855 174.531, 435.095 195.082, 436.398 201.500 L 437.006 204.500 435.362 201.500 C 432.587 196.439, 428.040 190.984, 416.604 179 C 405.264 167.116, 398.192 158.248, 394.874 151.750 C 393.821 149.688, 392.546 148, 392.041 148 C 390.424 148, 389.744 156.758, 390.866 163.131 C 392.180 170.592, 396.428 179.957, 401.787 187.211 C 403.967 190.163, 412.365 198.844, 420.450 206.503 C 428.534 214.163, 436.530 222.470, 438.220 224.965 C 441.212 229.380, 441.305 229.872, 441.780 243.622 C 445.037 338.020, 379.428 421.619, 285.788 442.386 C 252.586 449.749, 218.097 448.036, 183.757 437.318 C 177.298 435.302, 171.741 433.926, 171.407 434.260 C 170.094 435.572, 172.347 436.951, 179.925 439.475 C 228.360 455.605, 282.420 452.758, 327.500 431.702 C 350.564 420.929, 367.848 408.881, 385.825 391.047 C 423.664 353.507, 445 302.758, 445 250.293 C 445 238.582, 445.168 237.469, 447.364 234.589 C 456.261 222.925, 460.924 206.151, 463.474 176.633 C 464.371 166.256, 465.499 155.681, 465.981 153.133 C 467.139 147.012, 465.742 145.580, 462.458 149.521 C 457.189 155.843, 449.918 167.645, 447.053 174.527 C 444.239 181.286, 441.121 195.404, 440.902 202.381 C 440.812 205.233, 440.697 205.115, 439.551 201 C 438.855 198.499, 438.677 196.078, 439.149 195.550 C 440.553 193.983, 440.080 161.323, 438.493 150.154 C 436.323 134.892, 432.696 119.825, 428.406 108.250 C 422.690 92.830, 421.996 94.025, 422.020 119.250 C 422.031 130.938, 422.488 143.605, 423.037 147.400 C 423.585 151.194, 423.889 154.445, 423.711 154.623 C 423.533 154.801, 421.749 152.752, 419.747 150.071 C 416.368 145.544, 416.180 144.931, 417.128 141.500 C 418.698 135.813, 416.053 125.202, 409.505 110.917 C 395.949 81.346, 394.857 77.702, 391.464 50.690 C 391.081 47.646, 390.426 46.022, 389.680 46.267 C 387.431 47.005, 385.824 60.298, 385.661 79.500 C 385.504 98.080, 385.560 98.642, 388.208 104.933 L 390.915 111.366 383.697 104.196 C 377.604 98.143, 376.290 96.229, 375.262 91.903 C 371.191 74.763, 361.640 65.445, 324.167 42.054 C 310.645 33.614, 305.020 28.292, 302.055 21.134 C 300.768 18.025, 298 16.786, 298 19.318 M 305 32.638 C 305 34.158, 312.639 44.914, 316.850 49.322 C 321.617 54.315, 331.300 61.377, 342.500 68.029 C 353.684 74.673, 361.242 80.069, 366.750 85.346 C 369.087 87.585, 371 88.855, 371 88.168 C 371 86.243, 367.062 78.917, 363.797 74.767 C 359.792 69.678, 344.837 58.602, 326.641 47.248 C 318.313 42.052, 310.038 36.407, 308.250 34.704 C 306.462 33.001, 305 32.071, 305 32.638 M 388.674 66.508 C 385.953 95.331, 389.229 106.772, 407.191 131.187 L 414 140.443 414 135.903 C 414 129.878, 411.956 123.296, 406.381 111.365 C 394.563 86.075, 393.462 83.063, 391.086 69.508 L 389.334 59.515 388.674 66.508 M 293.999 91.733 C 294.004 92.674, 305.597 97.505, 311.846 99.170 C 318.180 100.858, 323.468 101.283, 342.500 101.635 C 363.910 102.031, 372.559 102.763, 377.500 104.597 L 379.500 105.339 377.500 103.063 C 372.293 97.137, 362.820 94.454, 342.103 93.035 C 328.060 92.074, 293.995 91.152, 293.999 91.733 M 425.419 128.500 C 425.877 150.620, 427.146 158.411, 433.321 177 L 436.809 187.500 436.905 174.128 C 437.042 154.860, 432.964 130.107, 426.972 113.839 L 425.006 108.500 425.419 128.500 M 362.693 121.964 C 367.199 126.357, 373.347 131.526, 376.356 133.451 C 380.598 136.165, 405.168 147.101, 415 150.653 C 415.825 150.951, 413.800 148.682, 410.500 145.612 C 398.017 133.998, 378.527 122.334, 362 116.585 L 354.500 113.976 362.693 121.964 M 112 135 C 112 136.696, 112.667 137, 116.389 137 C 121.915 137, 124.810 139.253, 126.025 144.500 C 126.535 146.700, 126.961 164.250, 126.971 183.500 L 126.989 218.500 118.745 227.057 C 100.276 246.226, 92.031 268.234, 93.289 295 C 95.097 333.461, 121.596 365.775, 159.907 376.235 C 171.295 379.345, 193.508 379.325, 204.395 376.196 C 220.509 371.564, 229.580 366.384, 247.309 351.691 C 265.082 336.961, 283.946 314.501, 301.008 287.755 L 308.500 276.010 320.628 276.005 C 329.147 276.002, 333.046 276.372, 333.732 277.250 C 334.270 277.938, 337.700 285.991, 341.355 295.147 C 349.052 314.429, 349.777 319.457, 345.365 322.927 C 343.520 324.379, 341.273 325, 337.865 325 C 334.207 325, 333 325.372, 333 326.500 C 333 327.800, 337 328, 363 328 C 387.908 328, 393 327.765, 393 326.614 C 393 325.741, 391.363 324.982, 388.583 324.565 C 381.661 323.527, 376.960 319.416, 372.174 310.217 C 369.878 305.805, 368 301.740, 368 301.184 C 368 300.610, 370.866 300.152, 374.633 300.123 C 402.093 299.912, 422.537 272.679, 415.505 245.680 C 413.434 237.731, 410.919 233.167, 405.100 226.799 C 396.111 216.965, 384.620 212.487, 370.146 213.179 C 362.657 213.537, 360.210 214.114, 354.708 216.823 C 351.112 218.593, 345.864 222.115, 343.046 224.649 C 340.228 227.182, 337.754 229.085, 337.549 228.878 C 337.344 228.670, 336.303 226.250, 335.235 223.500 C 332.422 216.257, 314.972 174.821, 313.853 172.728 C 312.991 171.114, 311.248 170.980, 294.286 171.228 C 281.552 171.414, 275.546 171.857, 275.289 172.630 C 275.064 173.307, 276.833 174.043, 279.707 174.466 C 289.750 175.947, 292.600 178.745, 298.495 192.914 L 301.163 199.328 294.638 214.914 C 291.049 223.486, 280.219 249.375, 270.573 272.445 C 254.966 309.769, 252.563 314.872, 248.766 318.756 C 245.998 321.589, 243.008 323.525, 240.250 324.268 C 237.912 324.899, 236 325.996, 236 326.707 C 236 327.711, 239.595 328, 252.051 328 L 268.102 328 265.496 331.417 C 264.062 333.296, 258.155 339.034, 252.369 344.167 C 224.932 368.507, 207.570 376.493, 182.500 376.303 C 164.210 376.164, 152.298 373.019, 137.731 364.482 C 119.010 353.510, 105.093 335.431, 98.331 313.297 C 95.949 305.499, 95.642 302.854, 95.624 290 C 95.609 278.160, 96.006 274.032, 97.789 267.500 C 100.376 258.021, 106.902 244.611, 112.361 237.556 C 117.196 231.307, 125.133 223, 126.270 223 C 126.734 223, 126.976 235.793, 126.807 251.429 C 126.515 278.434, 126.395 279.999, 124.412 282.679 C 122.842 284.800, 121.042 285.731, 117.162 286.432 C 114.030 286.998, 112 287.883, 112 288.682 C 112 289.739, 117.242 290, 138.500 290 C 160.282 290, 165 289.756, 165 288.629 C 165 287.745, 163.282 287.030, 160.162 286.616 C 156.816 286.172, 154.581 285.183, 152.912 283.408 L 150.500 280.842 150.230 251.171 L 149.961 221.500 154.058 216.750 C 156.312 214.137, 158.506 212, 158.935 212 C 159.363 212, 169.566 226.287, 181.607 243.750 C 213.266 289.664, 212.813 289.291, 237.750 289.825 C 251.550 290.120, 254 289.950, 254 288.700 C 254 287.708, 252.449 286.998, 249.250 286.526 C 243.714 285.708, 239.272 283.215, 235.320 278.706 C 233.769 276.937, 223.804 262.845, 213.175 247.391 L 193.850 219.292 190.213 221.146 C 186.006 223.291, 182.325 223.477, 176.807 221.824 C 172.799 220.623, 164.765 214.298, 162.958 210.921 C 160.783 206.858, 166.513 203.020, 174.773 203.006 C 177.996 203, 178.022 203.037, 176.477 205.394 C 174.598 208.262, 175.388 212.602, 178.049 214.026 C 183.309 216.841, 189 213.879, 189 208.326 C 189 203.368, 186.008 201.575, 176.772 201 L 168.744 200.500 183.534 184 C 191.668 174.925, 203.602 161.612, 210.054 154.415 C 223.063 139.904, 225.986 137.951, 236 137.071 C 240.857 136.644, 242.500 136.121, 242.500 135 C 242.500 133.715, 239.556 133.500, 222 133.500 C 204.444 133.500, 201.500 133.715, 201.500 135 C 201.500 136.118, 203.078 136.627, 207.701 137 C 214.662 137.561, 216.536 138.783, 215.641 142.177 C 215.304 143.455, 203.525 157.325, 189.466 173 C 164.293 201.065, 163.809 201.534, 157.702 203.738 C 154.291 204.969, 151.162 205.982, 150.750 205.988 C 150.338 205.995, 150 192.486, 150 175.968 C 150 144.061, 150.465 140.427, 154.850 138.080 C 155.960 137.486, 158.698 137, 160.934 137 C 164.333 137, 165 136.672, 165 135 C 165 133.050, 164.333 133, 138.500 133 C 112.667 133, 112 133.050, 112 135 M 458.212 160.481 C 452.905 168.472, 448.591 177.630, 446.428 185.500 C 444.551 192.327, 443.348 217.622, 444.471 226.617 L 445.187 232.345 447.895 227.923 C 454.826 216.601, 458.131 202.784, 460.497 175.246 C 461.360 165.207, 462.324 156.319, 462.640 155.496 C 463.734 152.644, 462.479 154.057, 458.212 160.481 M 393.551 159.020 C 396.016 176.049, 401.681 184.738, 424.334 206.231 L 438.805 219.963 437.061 214.231 C 433.323 201.951, 429.831 196.920, 412.780 179.254 C 406.280 172.518, 399.148 164.202, 396.932 160.773 L 392.903 154.539 393.551 159.020 M 301.043 207.387 C 300.544 208.699, 297.121 216.912, 293.437 225.637 C 278.287 261.511, 274.018 272.418, 274.814 273.214 C 275.275 273.675, 282.806 273.928, 291.550 273.776 L 307.447 273.500 314.715 262.500 C 318.713 256.450, 321.987 250.848, 321.992 250.051 C 322.004 247.890, 303.691 205, 302.756 205 C 302.313 205, 301.542 206.074, 301.043 207.387 M 154 207.306 C 151.085 208.301, 150.448 209.043, 150.187 211.750 C 149.774 216.027, 151 215.850, 155.384 210.997 C 160.351 205.499, 160.232 205.181, 154 207.306 M 361.500 216.346 C 354.398 218.698, 348.832 222.073, 343.866 227.039 C 339.377 231.528, 339.090 232.105, 340.067 234.677 C 341.449 238.312, 354.831 270.193, 361.401 285.500 L 366.550 297.500 375.025 297.474 C 382.419 297.450, 384.358 297.044, 390.223 294.289 C 403.270 288.159, 411.822 276.927, 414.255 262.723 C 417.269 245.126, 407.118 226.633, 390.061 218.646 C 384.514 216.049, 382.109 215.531, 374.500 215.297 C 368.970 215.128, 363.958 215.532, 361.500 216.346 M 0.425 250 C 0.425 261.825, 0.569 266.663, 0.746 260.750 C 0.923 254.838, 0.923 245.162, 0.746 239.250 C 0.569 233.338, 0.425 238.175, 0.425 250 M 317.250 262.583 C 313.813 267.754, 311 272.439, 311 272.993 C 311 274.219, 330.645 274.384, 331.399 273.164 C 331.779 272.549, 324.692 254.406, 323.656 253.340 C 323.570 253.252, 320.688 257.411, 317.250 262.583 M 264.615 294.446 C 256.623 313.807, 255.638 318.457, 258.905 321.414 C 261.195 323.486, 270.132 326.331, 270.988 325.260 C 271.321 324.842, 273.619 322.025, 276.094 319 C 284.020 309.312, 305 278.587, 305 276.667 C 305 276.300, 297.627 276, 288.615 276 L 272.231 276 264.615 294.446 M 120.199 340 C 120.199 343.861, 120.412 344.755, 120.912 343 L 121.625 340.500 123.053 342.750 C 123.838 343.988, 124.893 345, 125.396 345 C 125.898 345, 125.565 344.177, 124.655 343.171 C 123.745 342.165, 123 340.738, 123 340 C 123 339.262, 123.745 337.835, 124.655 336.829 C 125.588 335.798, 125.821 335, 125.190 335 C 124.574 335, 123.520 336.012, 122.846 337.250 L 121.623 339.500 120.911 337 C 120.412 335.247, 120.199 336.144, 120.199 340 M 134 338.309 C 134 343.053, 136.035 345.459, 139.344 344.628 C 141.780 344.017, 141.988 343.571, 141.850 339.231 L 141.700 334.500 141.100 339 C 140.609 342.684, 140.092 343.558, 138.250 343.820 C 136.198 344.111, 136 343.736, 136 339.570 C 136 337.056, 135.550 335, 135 335 C 134.450 335, 134 336.489, 134 338.309 M 151.667 335.667 C 150.152 337.182, 151.186 339.169, 154 340.150 C 158.095 341.577, 158.070 344.384, 153.969 343.782 C 152.133 343.513, 151.298 343.698, 151.853 344.253 C 153.453 345.853, 157.478 344.653, 157.789 342.484 C 157.998 341.026, 157.236 340.150, 155.039 339.321 C 151.070 337.823, 151.005 335.627, 154.947 336.206 C 156.568 336.443, 157.667 336.270, 157.388 335.819 C 156.781 334.837, 152.608 334.725, 151.667 335.667 M 167 340 C 167 342.933, 167.253 345.081, 167.561 344.772 C 168.334 343.999, 168.382 336.049, 167.619 335.285 C 167.278 334.945, 167 337.067, 167 340 M 172.830 337.250 C 172.608 338.488, 172.728 340.850, 173.095 342.500 C 173.636 344.928, 173.786 344.499, 173.882 340.250 C 174.005 334.774, 173.521 333.393, 172.830 337.250 M 184.636 339.283 C 182.812 344.058, 182.517 346.434, 184.080 343.750 C 184.641 342.788, 185.955 342, 187 342 C 188.045 342, 189.394 342.788, 189.998 343.750 C 190.912 345.208, 190.983 345.083, 190.421 343 C 189.696 340.311, 187.166 335, 186.610 335 C 186.424 335, 185.536 336.928, 184.636 339.283 M 200.447 337.441 C 198.891 339.816, 198.888 340.180, 200.408 342.500 C 202.356 345.472, 205.985 345.779, 208.345 343.171 C 210.653 340.621, 210.424 339.982, 207.250 340.116 C 205.558 340.187, 205.173 340.408, 206.250 340.689 C 207.213 340.941, 208 341.537, 208 342.014 C 208 344.905, 201.530 344.136, 200.750 341.153 C 199.644 336.924, 204.678 334.186, 207.925 337.250 C 208.994 338.259, 209.163 338.211, 208.798 337 C 208.549 336.175, 206.946 335.361, 205.235 335.191 C 202.808 334.950, 201.754 335.445, 200.447 337.441 M 219.136 340.250 C 219.211 343.137, 219.467 344.488, 219.706 343.250 C 219.944 342.012, 220.373 341, 220.659 341 C 220.945 341, 222.069 342.012, 223.156 343.250 C 224.738 345.050, 224.941 345.113, 224.174 343.565 C 223.544 342.297, 223.576 341.051, 224.265 339.948 C 225.810 337.473, 224.444 335, 221.531 335 C 219.127 335, 219.007 335.263, 219.136 340.250 M 235.636 339.283 C 233.812 344.058, 233.517 346.434, 235.080 343.750 C 235.641 342.788, 236.955 342, 238 342 C 239.045 342, 240.394 342.788, 240.998 343.750 C 241.912 345.208, 241.983 345.083, 241.421 343 C 240.696 340.311, 238.166 335, 237.610 335 C 237.424 335, 236.536 336.928, 235.636 339.283 M 274.636 339.283 C 272.812 344.058, 272.517 346.434, 274.080 343.750 C 274.641 342.788, 275.955 342, 277 342 C 278.045 342, 279.394 342.788, 279.998 343.750 C 280.912 345.208, 280.983 345.083, 280.421 343 C 279.696 340.311, 277.166 335, 276.610 335 C 276.424 335, 275.536 336.928, 274.636 339.283 M 291.200 336.200 C 290.540 336.860, 290 338.670, 290 340.221 C 290 343.899, 293.762 345.885, 297.500 344.182 C 300.956 342.607, 300.793 339.961, 297.250 340.136 C 294.806 340.257, 294.757 340.322, 296.808 340.713 C 298.676 341.070, 298.891 341.426, 297.936 342.577 C 295.130 345.958, 290.294 342.948, 291.407 338.513 C 291.864 336.694, 292.707 336, 294.460 336 C 295.792 336, 297.160 336.450, 297.500 337 C 297.840 337.550, 298.597 338, 299.181 338 C 299.852 338, 299.785 337.446, 299 336.500 C 297.508 334.702, 292.876 334.524, 291.200 336.200 M 310.189 340 C 309.046 342.750, 308.536 345, 309.055 345 C 309.575 345, 310 344.325, 310 343.500 C 310 341.434, 314.616 341.556, 315.417 343.643 C 315.763 344.547, 316.273 345.061, 316.549 344.785 C 317.065 344.269, 313.390 335, 312.669 335 C 312.448 335, 311.332 337.250, 310.189 340 M 326.136 340.250 C 326.211 343.137, 326.473 344.444, 326.718 343.153 L 327.165 340.806 329.802 343.153 C 331.253 344.444, 331.865 344.748, 331.162 343.828 C 330.153 342.507, 330.140 341.749, 331.100 340.211 C 332.793 337.501, 331.560 335, 328.531 335 C 326.127 335, 326.007 335.263, 326.136 340.250 M 341.331 340.277 L 342.361 345.487 344.125 341.493 L 345.889 337.500 347.609 341.500 L 349.328 345.500 350.195 341.528 C 350.671 339.343, 350.875 336.868, 350.647 336.028 C 350.419 335.188, 350.180 335.663, 350.116 337.083 C 349.936 341.084, 348.775 341.356, 347.203 337.767 L 345.773 334.500 344.803 337.250 C 343.684 340.423, 342 340.909, 342 338.059 C 342 336.991, 341.618 335.882, 341.151 335.593 C 340.683 335.304, 340.765 337.412, 341.331 340.277 M 361 339.500 C 359.872 342.131, 359.175 344.509, 359.451 344.785 C 359.727 345.061, 360.237 344.547, 360.583 343.643 C 361.384 341.556, 366 341.434, 366 343.500 C 366 344.325, 366.434 345, 366.964 345 C 367.776 345, 364.720 336.386, 363.462 335.129 C 363.236 334.902, 362.128 336.869, 361 339.500 M 376.180 339.750 C 376.004 344.884, 376.061 344.997, 378.750 344.864 C 381.028 344.751, 381.123 344.654, 379.302 344.301 C 377.482 343.948, 377.041 343.070, 376.732 339.187 L 376.360 334.500 376.180 339.750 M 220 338.073 C 220 340.636, 223.310 340.345, 223.812 337.739 C 224.043 336.539, 223.504 336, 222.073 336 C 220.642 336, 220 336.642, 220 338.073 M 327 338.073 C 327 339.504, 327.539 340.043, 328.739 339.812 C 331.345 339.310, 331.636 336, 329.073 336 C 327.642 336, 327 336.642, 327 338.073 M 185.638 339.500 C 185.288 340.414, 185.637 341, 186.531 341 C 187.339 341, 188 340.325, 188 339.500 C 188 338.675, 187.598 338, 187.107 338 C 186.616 338, 185.955 338.675, 185.638 339.500 M 236.638 339.500 C 236.288 340.414, 236.637 341, 237.531 341 C 238.339 341, 239 340.325, 239 339.500 C 239 338.675, 238.598 338, 238.107 338 C 237.616 338, 236.955 338.675, 236.638 339.500 M 275.638 339.500 C 275.288 340.414, 275.637 341, 276.531 341 C 277.339 341, 278 340.325, 278 339.500 C 278 338.675, 277.598 338, 277.107 338 C 276.616 338, 275.955 338.675, 275.638 339.500 M 311.636 339.506 C 311.288 340.413, 311.639 341, 312.531 341 C 314.149 341, 314.517 339.437, 313.105 338.565 C 312.612 338.260, 311.952 338.684, 311.636 339.506 M 362.525 338.960 C 361.677 340.332, 362.428 341.362, 363.905 340.854 C 364.511 340.646, 364.588 339.940, 364.093 339.143 C 363.468 338.137, 363.063 338.090, 362.525 338.960 M 76.427 356.765 C 73.086 359.053, 75.300 365.399, 79.232 364.807 C 84.169 364.064, 84.675 355.982, 79.782 356.015 C 78.527 356.024, 77.017 356.361, 76.427 356.765 M 96.820 385.496 C 95.880 387.558, 95.998 388.340, 97.496 389.996 C 100.603 393.429, 105 391.966, 105 387.500 C 105 382.695, 98.789 381.174, 96.820 385.496 M 123.667 406.667 C 122.210 408.123, 123.045 412.954, 124.928 413.961 C 128.794 416.030, 133.058 411.845, 131 408 C 129.956 406.050, 125.156 405.177, 123.667 406.667 M 154 425 C 151.650 427.350, 151.563 428.020, 153.299 430.395 C 154.164 431.577, 155.586 432.059, 157.549 431.836 C 159.979 431.559, 160.559 430.979, 160.836 428.549 C 161.059 426.586, 160.577 425.164, 159.395 424.299 C 157.020 422.563, 156.350 422.650, 154 425" stroke="none" fill="#faeae2" fill-rule="evenodd"/></svg>